<svg width="30" height="30" viewBox="0 0 30 30" fill="none" xmlns="http://www.w3.org/2000/svg">
<g id="ic:baseline-discord">
<path id="Vector" d="M24.0874 6.6625C22.4249 5.8875 20.6249 5.325 18.7499 5C18.7335 4.99947 18.7171 5.00256 18.702 5.00904C18.6869 5.01552 18.6734 5.02523 18.6624 5.0375C18.4374 5.45 18.1749 5.9875 17.9999 6.4C16.0112 6.1 13.9887 6.1 11.9999 6.4C11.8249 5.975 11.5624 5.45 11.3249 5.0375C11.3124 5.0125 11.2749 5 11.2374 5C9.3624 5.325 7.5749 5.8875 5.8999 6.6625C5.8874 6.6625 5.8749 6.675 5.8624 6.6875C2.4624 11.775 1.5249 16.725 1.9874 21.625C1.9874 21.65 1.9999 21.675 2.0249 21.6875C4.2749 23.3375 6.4374 24.3375 8.5749 25C8.6124 25.0125 8.6499 25 8.6624 24.975C9.1624 24.2875 9.6124 23.5625 9.9999 22.8C10.0249 22.75 9.9999 22.7 9.9499 22.6875C9.2374 22.4125 8.5624 22.0875 7.8999 21.7125C7.8499 21.6875 7.8499 21.6125 7.8874 21.575C8.0249 21.475 8.1624 21.3625 8.2999 21.2625C8.3249 21.2375 8.3624 21.2375 8.3874 21.25C12.6874 23.2125 17.3249 23.2125 21.5749 21.25C21.5999 21.2375 21.6374 21.2375 21.6624 21.2625C21.7999 21.375 21.9374 21.475 22.0749 21.5875C22.1249 21.625 22.1249 21.7 22.0624 21.725C21.4124 22.1125 20.7249 22.425 20.0124 22.7C19.9624 22.7125 19.9499 22.775 19.9624 22.8125C20.3624 23.575 20.8124 24.3 21.2999 24.9875C21.3374 25 21.3749 25.0125 21.4124 25C23.5624 24.3375 25.7249 23.3375 27.9749 21.6875C27.9999 21.675 28.0124 21.65 28.0124 21.625C28.5624 15.9625 27.0999 11.05 24.1374 6.6875C24.1249 6.675 24.1124 6.6625 24.0874 6.6625ZM10.6499 18.6375C9.3624 18.6375 8.2874 17.45 8.2874 15.9875C8.2874 14.525 9.3374 13.3375 10.6499 13.3375C11.9749 13.3375 13.0249 14.5375 13.0124 15.9875C13.0124 17.45 11.9624 18.6375 10.6499 18.6375ZM19.3624 18.6375C18.0749 18.6375 16.9999 17.45 16.9999 15.9875C16.9999 14.525 18.0499 13.3375 19.3624 13.3375C20.6874 13.3375 21.7374 14.5375 21.7249 15.9875C21.7249 17.45 20.6874 18.6375 19.3624 18.6375Z" fill="white"/>
</g>
</svg>
